HIERARCHY
ROOT Hips
{
	OFFSET -14.64140 90.27770 -84.91600
	CHANNELS 6 Xposition Yposition Zposition Zrotation Xrotation Yrotation
	JOINT Spine
	{
		OFFSET 0.00000 13.20850 -1.60436
		CHANNELS 3 Zrotation Xrotation Yrotation
		JOINT Spine1
		{
			OFFSET 0.00000 8.61716 0.00000
			CHANNELS 3 Zrotation Xrotation Yrotation
			JOINT Spine2
			{
				OFFSET 0.00000 8.61717 0.00000
				CHANNELS 3 Zrotation Xrotation Yrotation
				JOINT Spine3
				{
					OFFSET 0.00000 8.61717 0.00000
					CHANNELS 3 Zrotation Xrotation Yrotation
					JOINT Neck
					{
						OFFSET 0.00000 11.07920 1.10792
						CHANNELS 3 Zrotation Xrotation Yrotation
						JOINT Neck1
						{
							OFFSET 0.00000 7.08032 0.00000
							CHANNELS 3 Zrotation Xrotation Yrotation
							JOINT Head
							{
								OFFSET 0.00000 7.08031 0.00000
								CHANNELS 3 Zrotation Xrotation Yrotation
								End site
								{
									OFFSET 0.00000 0.00000 0.00000
								}
							}
						}
					}
					JOINT RightShoulder
					{
						OFFSET -0.01000 7.91373 5.19711
						CHANNELS 3 Zrotation Xrotation Yrotation
						JOINT RightArm
						{
							OFFSET -18.41580 0.00000 0.00000
							CHANNELS 3 Zrotation Xrotation Yrotation
							JOINT RightForeArm
							{
								OFFSET -29.11090 0.00000 0.00000
								CHANNELS 3 Zrotation Xrotation Yrotation
								JOINT RightHand
								{
									OFFSET -24.65040 0.00000 0.00000
									CHANNELS 3 Zrotation Xrotation Yrotation
									JOINT RightHandThumb1
									{
										OFFSET -5.35114 -0.85590 3.97906
										CHANNELS 3 Zrotation Xrotation Yrotation
										JOINT RightHandThumb2
										{
											OFFSET -4.52789 0.00000 0.00000
											CHANNELS 3 Zrotation Xrotation Yrotation
											JOINT RightHandThumb3
											{
												OFFSET -2.46976 0.00000 0.00000
												CHANNELS 3 Zrotation Xrotation Yrotation
												End site
												{
													OFFSET 0.00000 0.00000 0.00000
												}
											}
										}
									}
									JOINT RightHandIndex1
									{
										OFFSET -14.26970 0.00000 2.88139
										CHANNELS 3 Zrotation Xrotation Yrotation
										JOINT RightHandIndex2
										{
											OFFSET -5.48836 0.00000 0.00000
											CHANNELS 3 Zrotation Xrotation Yrotation
											JOINT RightHandIndex3
											{
												OFFSET -3.01859 0.00000 0.00000
												CHANNELS 3 Zrotation Xrotation Yrotation
												End site
												{
													OFFSET 0.00000 0.00000 0.00000
												}
											}
										}
									}
									JOINT RightHandMiddle1
									{
										OFFSET -14.26970 0.00000 -0.09147
										CHANNELS 3 Zrotation Xrotation Yrotation
										JOINT RightHandMiddle2
										{
											OFFSET -6.17441 0.00000 0.00000
											CHANNELS 3 Zrotation Xrotation Yrotation
											JOINT RightHandMiddle3
											{
												OFFSET -3.56743 0.00000 0.00000
												CHANNELS 3 Zrotation Xrotation Yrotation
												End site
												{
													OFFSET 0.00000 0.00000 0.00000
												}
											}
										}
									}
									JOINT RightHandRing1
									{
										OFFSET -12.69180 0.00000 -3.06433
										CHANNELS 3 Zrotation Xrotation Yrotation
										JOINT RightHandRing2
										{
											OFFSET -5.62556 0.00000 0.00000
											CHANNELS 3 Zrotation Xrotation Yrotation
											JOINT RightHandRing3
											{
												OFFSET -3.56744 0.00000 0.00000
												CHANNELS 3 Zrotation Xrotation Yrotation
												End site
												{
													OFFSET 0.00000 0.00000 0.00000
												}
											}
										}
									}
									JOINT RightHandPinky1
									{
										OFFSET -11.11390 0.00000 -6.03719
										CHANNELS 3 Zrotation Xrotation Yrotation
										JOINT RightHandPinky2
										{
											OFFSET -4.52789 0.00000 0.00000
											CHANNELS 3 Zrotation Xrotation Yrotation
											JOINT RightHandPinky3
											{
												OFFSET -2.46976 0.00000 0.00000
												CHANNELS 3 Zrotation Xrotation Yrotation
												End site
												{
													OFFSET 0.00000 0.00000 0.00000
												}
											}
										}
									}
								}
							}
						}
					}
					JOINT LeftShoulder
					{
						OFFSET 0.01000 7.91373 5.19711
						CHANNELS 3 Zrotation Xrotation Yrotation
						JOINT LeftArm
						{
							OFFSET 18.41580 0.00000 0.00000
							CHANNELS 3 Zrotation Xrotation Yrotation
							JOINT LeftForeArm
							{
								OFFSET 29.11090 0.00000 0.00000
								CHANNELS 3 Zrotation Xrotation Yrotation
								JOINT LeftHand
								{
									OFFSET 24.65040 0.00000 0.00000
									CHANNELS 3 Zrotation Xrotation Yrotation
									JOINT LeftHandThumb1
									{
										OFFSET 5.35114 -0.85590 3.97906
										CHANNELS 3 Zrotation Xrotation Yrotation
										JOINT LeftHandThumb2
										{
											OFFSET 4.52789 0.00000 0.00000
											CHANNELS 3 Zrotation Xrotation Yrotation
											JOINT LeftHandThumb3
											{
												OFFSET 2.46977 0.00000 0.00000
												CHANNELS 3 Zrotation Xrotation Yrotation
												End site
												{
													OFFSET 0.00000 0.00000 0.00000
												}
											}
										}
									}
									JOINT LeftHandIndex1
									{
										OFFSET 14.26970 0.00000 2.88139
										CHANNELS 3 Zrotation Xrotation Yrotation
										JOINT LeftHandIndex2
										{
											OFFSET 5.48836 0.00000 0.00000
											CHANNELS 3 Zrotation Xrotation Yrotation
											JOINT LeftHandIndex3
											{
												OFFSET 3.01859 0.00000 0.00000
												CHANNELS 3 Zrotation Xrotation Yrotation
												End site
												{
													OFFSET 0.00000 0.00000 0.00000
												}
											}
										}
									}
									JOINT LeftHandMiddle1
									{
										OFFSET 14.26970 0.00000 -0.09147
										CHANNELS 3 Zrotation Xrotation Yrotation
										JOINT LeftHandMiddle2
										{
											OFFSET 6.17440 0.00000 0.00000
											CHANNELS 3 Zrotation Xrotation Yrotation
											JOINT LeftHandMiddle3
											{
												OFFSET 3.56744 0.00000 0.00000
												CHANNELS 3 Zrotation Xrotation Yrotation
												End site
												{
													OFFSET 0.00000 0.00000 0.00000
												}
											}
										}
									}
									JOINT LeftHandRing1
									{
										OFFSET 12.69180 0.00000 -3.06433
										CHANNELS 3 Zrotation Xrotation Yrotation
										JOINT LeftHandRing2
										{
											OFFSET 5.62556 0.00000 0.00000
											CHANNELS 3 Zrotation Xrotation Yrotation
											JOINT LeftHandRing3
											{
												OFFSET 3.56744 0.00000 0.00000
												CHANNELS 3 Zrotation Xrotation Yrotation
												End site
												{
													OFFSET 0.00000 0.00000 0.00000
												}
											}
										}
									}
									JOINT LeftHandPinky1
									{
										OFFSET 11.11390 0.00000 -6.03719
										CHANNELS 3 Zrotation Xrotation Yrotation
										JOINT LeftHandPinky2
										{
											OFFSET 4.52789 0.00000 0.00000
											CHANNELS 3 Zrotation Xrotation Yrotation
											JOINT LeftHandPinky3
											{
												OFFSET 2.46976 0.00000 0.00000
												CHANNELS 3 Zrotation Xrotation Yrotation
												End site
												{
													OFFSET 0.00000 0.00000 0.00000
												}
											}
										}
									}
								}
							}
						}
					}
					JOINT pCube4
					{
						OFFSET 0.00000 10.91090 1.10792
						CHANNELS 3 Zrotation Xrotation Yrotation
						End site
						{
							OFFSET 0.00000 0.00000 0.00000
						}
					}
				}
			}
		}
	}
	JOINT RightUpLeg
	{
		OFFSET -9.98441 0.00000 0.00000
		CHANNELS 3 Zrotation Xrotation Yrotation
		JOINT RightLeg
		{
			OFFSET 0.00000 -42.11790 0.00000
			CHANNELS 3 Zrotation Xrotation Yrotation
			JOINT RightFoot
			{
				OFFSET 0.00000 -45.00020 -0.00001
				CHANNELS 3 Zrotation Xrotation Yrotation
				JOINT RightForeFoot
				{
					OFFSET 0.00000 -3.74820 0.00000
					CHANNELS 3 Zrotation Xrotation Yrotation
					JOINT RightToeBase
					{
						OFFSET 0.00000 0.06325 14.43120
						CHANNELS 3 Zrotation Xrotation Yrotation
						End site
						{
							OFFSET 0.00000 0.00000 0.00000
						}
					}
				}
			}
		}
	}
	JOINT LeftUpLeg
	{
		OFFSET 9.98441 0.00000 0.00000
		CHANNELS 3 Zrotation Xrotation Yrotation
		JOINT LeftLeg
		{
			OFFSET 0.00000 -42.11800 0.00000
			CHANNELS 3 Zrotation Xrotation Yrotation
			JOINT LeftFoot
			{
				OFFSET 0.00000 -45.00070 0.00000
				CHANNELS 3 Zrotation Xrotation Yrotation
				JOINT LeftForeFoot
				{
					OFFSET 0.00000 -3.74824 0.00000
					CHANNELS 3 Zrotation Xrotation Yrotation
					JOINT LeftToeBase
					{
						OFFSET 0.00000 0.06325 14.43110
						CHANNELS 3 Zrotation Xrotation Yrotation
						End site
						{
							OFFSET 0.00000 0.00000 0.00000
						}
					}
				}
			}
		}
	}
}
MOTION
Frames: 4
Frame Time: 0.050000
-0.013102264513115875 -0.020043367685846622 -0.04325732367919827 0.0002661777557740998 0.015576167866260352 -0.011826506850349859 5.186193842423377 3.2028369674819492 -2.183960526764477 -0.8520476098688063 3.3953385106043017 0.42731527135738573 -0.7667259734117386 -0.9191162189028353 0.8290841377636275 -0.4911072128431929 -0.28086807695301497 -0.28242756035756944 0.22421078123707808 11.37938799966028 -1.6423858666311033 0.37070186414482736 -0.6700679785139574 -3.9725691448062697 1.0581813837219478 -17.411003280881477 -0.412572033555431 -11.763629806271355 4.046509103205372 -16.523022785216106 80.7513377142275 -1.6387947607297846 13.951787050813678 23.433619202610885 1.4004620528636034 83.30723012041246 9.695601761985763 -0.4832086960083707 -5.371885143295986 4.570242780005751 -0.14260057400943427 -1.570751374423161 0.03216633247951954 -0.002649943563422754 -56.267369600274485 0.04884762880043598 -0.02943674852627003 -56.23913860057852 -38.77281685149119 0.023035290639941565 0.04983170229408784 0.0344708300749506 -0.02812046115624987 -0.008048738257708136 0.021192986775310417 0.012881730768330471 0.012448139976716281 -36.68035662047694 -0.022637918721722355 -0.011437353110932228 0.0006775775110177523 -0.03298979718276566 -0.017111425469553698 0.023680903919353066 0.01586804244251796 -0.009179550110299048 -19.757124204027054 0.0005431996039089696 -0.04046557238842289 -0.03788193154415394 0.03939601632193171 -0.029395635863957038 -0.0425024078887235 -0.049707159285366315 0.040415667058285074 24.06712225749807 -0.025777846748117526 0.015141940481985812 28.83757093977235 0.015476214743396229 -0.028562781313047632 28.84802380391985 -0.005059496681126575 0.039950065316239645 10.859334336888722 2.5545376208976105 13.431372338937349 -78.9643907396813 17.698095106287965 -13.279275483977681 -69.43829822996595 11.776049089180356 -95.3158502734269 -8.11286196697826 -9.30092174787582 6.011440916742807 -0.4316694515209415 0.10510989380109834 -8.146680022979693 0.01318246368332305 0.019130787510844523 44.590706023651336 -0.03881757543816433 -0.003865943859300296 44.554985646688635 12.501293981414866 -0.013592583745621958 0.020716587923332 0.038502647243112906 0.035653586616634245 -0.04956688604621463 -0.023112710712716564 0.02740662447108822 -0.008589038526510738 11.145727156371104 -0.049903621953499226 0.03849624341489401 0.0027001628086065124 0.04051788470570398 -0.004395926402398254 -0.0278779502402011 0.018111723370825658 0.009450886221779729 4.815038608706827 -0.0007044911557472813 -0.011167475714578727 0.010380252987362878 -0.007750938833110714 0.04466769148299482 -0.0370707147567476 -0.019553076709985608 0.004246044737512882 -5.581104306848435 0.013836443371067342 0.0010800343387951591 -6.713656678556717 -0.021327082815731785 0.026246005355921562 -6.685947074197543 -0.003141700387052829 -0.03425686005197296 0.030171152928271817 0.033832116617811485 -0.03092268513241624 8.090652475143417 3.5385434760051897 -19.22580040703492 0.02789142549658062 10.401089752365214 -0.007057712785729798 -5.653966129383882 -15.68146011175573 3.1684166365787254 -0.016326800182634535 0.03797724702392314 0.026532443463146406 -0.018361285956276292 4.7427592093439 -0.014155142091330368 12.475340266537 -8.196232539438721 6.9167923010661 0.02211681481065291 46.37450934087696 0.0033876446012233658 -4.352848514813226 -14.765634091047268 -3.7998950917613423 -0.0026209878796556486 0.011055479360939922 0.031543139459334554 -0.03100763926389007 -10.716651939895156 -0.02580169165011661 
-0.028502611924571444 -0.024692704174706856 0.01956759905235818 -0.04570038516705499 -0.012912245607698653 -0.040429071726181876 5.134936466581302 3.2237684256208574 -2.2069617220982143 -0.8819472593816852 3.3930477197670657 0.46575798320228745 -0.7452699460288739 -0.9093118642274974 0.7744103844942184 -0.41232788072269644 -0.24489712999361968 -0.35988730183800083 0.2591246443267315 11.205731222530462 -1.7466246130391005 0.35904955375935865 -0.7343866644254058 -4.158913987830463 1.0651280455700294 -17.422954605800463 -0.36994407411062874 -11.694302439636632 4.018852051671948 -16.60296397071261 81.06004754229569 -2.1972602076044163 13.074489834514896 23.58299371882763 1.5283524458940383 82.29497852862244 9.82433728272688 -0.5045616378057007 -5.558087335598312 4.514136871395509 -0.11471438530381672 -1.5752197682769529 0.01749853024788577 0.03171671793375865 -56.26178853181727 -0.009283887765190058 -0.02920610861377475 -56.197527584613034 -38.78994019450227 -0.009200651656665244 -0.0320274469962032 0.004827072976324585 -0.04053993728990486 0.008162352952738825 0.01965061433263663 -0.008542205729737521 -0.03300883674684326 -36.670055937525994 -0.01975561319897396 0.048012658590137966 -0.014699533526970423 -0.008912277328045769 0.018532502268650594 -0.012014403475564452 0.00740850722357541 -0.013141703657231716 -19.734976225844793 -0.04926849344658578 0.024692945147185164 -0.003306628353629493 0.04696335286845603 0.04900443670386033 0.01879805946845121 0.045373349433050686 0.019155602897891918 24.015528211386915 0.0022996354155480473 -0.040482742465065356 28.850245150558337 0.004942586139890075 -0.023199179041579136 28.866883195998426 -0.03295636472723417 -0.03190208282784964 10.722002595545918 2.544622046689009 13.44832755400462 -79.17048407960905 17.296757765819756 -12.940911984562216 -71.64569532700551 11.891599255645717 -96.14427824451657 -8.106022457438648 -9.77806558904033 6.216929748028936 -0.5132864343177337 0.05126825921884785 -8.151299618616905 -0.03412111276172612 -0.0009849338069894415 44.580080848086574 -0.049543604102141876 -0.016915331751527853 44.54697394776797 12.459723236734835 0.009823048465675234 0.04454566424167915 0.03878214253202853 -0.0385319482044974 -0.0031983605364300375 0.029628618125219688 0.036353069912901444 -0.04954710880303747 11.09766431744598 -0.04758824474040292 -0.03917224070504866 0.03490999215853692 -0.04045505538352132 -0.0026625988877489707 -0.013776526434395246 0.018445658584005053 0.02063792627688942 4.771555730345019 0.04034252011261364 -0.04408153623128065 -0.002526024124653328 -0.024995236810240868 0.04539383869863738 0.018403326164655214 0.02463115701286766 0.03474055993090673 -5.633439233893234 0.029187520808349465 -0.016218623825017597 -6.697491594114885 -0.039636575382418084 0.002279751538219451 -6.72669573002945 0.043076092115994245 -0.008168449554500716 -0.04135694972278192 0.006789791575274126 -0.002576678698787139 8.058804119412862 3.4656386545935063 -19.170721835477767 0.017953356140113678 10.34797684751347 0.03455310574836017 -5.608536000839992 -15.65477793745753 3.180480592575418 -0.0014737493192861788 0.03615966899940366 0.0155378266613669 0.024151028548889144 4.708835056994119 0.019225312177186076 12.461759661842756 -8.21879937041563 6.901419212921451 -0.012025927684344299 46.404020805983684 0.03138138157204503 -4.340862750003558 -14.795899320876318 -3.8390328062631833 -0.026899978892492467 -0.013277358575946469 0.004554506735847273 0.03633900822761474 -10.781979411096104 0.0037389656240301846 
-0.03790551943242045 0.022526602553769537 0.009413066983268874 0.040888172432747616 -0.00456565057426599 -0.0034322539068505904 5.20962471825071 3.2199005009839667 -2.2066264172128434 -0.8803424955895001 3.3484996739525434 0.46637835602415345 -0.7092600357345583 -0.8474716314448125 0.7196011601370214 -0.40579987719115607 -0.2771928642913833 -0.312826894571276 0.32222326456031236 11.133294525672868 -1.7650505190528534 0.40647648980438283 -0.7314862075491716 -4.185761243526147 1.1337567005189622 -17.417961407577703 -0.37484786779274054 -11.476333105858929 3.9404120691977513 -16.730574408066374 81.30606724798585 -2.003314792137287 11.624913630460314 23.570075471856732 1.6506018223555698 81.93299745136852 10.000063908023977 -0.47523850417796254 -5.695767158819701 4.54972351845512 -0.10605588365382859 -1.5973372727071413 -0.0078537905389963 0.024079723088778145 -56.19325374037271 0.04375466112045119 0.019605126792232367 -56.28051972494507 -38.788921841272995 -0.03000250699579533 -0.002131059576756643 0.011913920856337567 0.009866140054103377 -0.012281304155957039 -0.02643230435471936 -0.024048283747857575 0.010935275443691286 -36.703843804112864 0.03518149034227628 -0.02461841379894483 0.008471525493415073 0.0012725941692274894 0.004078903069724627 -0.020218650657339486 0.018989946700724094 -0.04549454070700544 -19.720364098587154 -0.03126176583704714 -0.029966671513743874 -0.0484922588174322 0.01469441856182932 -0.014261264654082376 0.009892843959918952 -0.001263304722909837 0.013904590511473311 24.060310324168345 -0.0033002615528953325 0.04454839893968128 28.824188922713116 0.01215577932340114 0.013228775086482937 28.903645052392953 0.02183007210681971 0.04733113183998851 10.574400738318113 2.5093784028413006 13.526949449142323 -79.33971862860152 17.141344705659417 -12.36828227159022 -73.96231543198559 11.673998968029823 -97.36581715085329 -8.538326337594762 -10.466157774948714 6.5949241013310695 -0.4638561636986587 0.058001659676340016 -8.135260102593087 -0.03851772802726101 0.0025446858862866657 44.581776513075006 0.04295202267867009 0.0282177645560643 44.57617201945022 12.451658881547491 0.005510729347634947 0.01646292005052125 0.027181941475295374 -0.022804110601339647 -0.0007698511090105159 -0.035426502783351396 -0.03920611900234189 -0.0339574730774523 11.084272915548581 -0.03793147522855621 -0.036714281137430055 -0.003574156405247717 0.008932582538440925 0.006262193503414587 -0.002439135564089824 -0.02479608792324811 0.04441687337808229 4.818288044373986 0.0265063377781957 0.03916410795921902 -0.023687170170828616 0.008080073445837724 -0.01402629136431109 0.03940552230159827 0.03369109103268344 -0.030988219538046945 -5.57389745242 0.0476648861536609 0.034167431383137846 -6.769367267903306 0.024250587737144145 0.003957043472244011 -6.69049661471834 0.007809098126226462 0.025221539344270058 0.026787127396611144 -0.016797488426862645 0.0008079691257723713 8.08715545751849 3.4591313045995147 -19.20720073632565 -0.035121849401860326 10.403988208619872 0.008808697271392406 -5.611451258889508 -15.621846716613671 3.166157539803464 0.023088747154889424 -0.000905447630369 -0.011048051068921825 0.045960204042230966 4.695421835019646 0.021593834406118357 12.487655396831839 -8.226940521568148 6.908454371479696 -0.02749769846253947 46.36666902244207 -0.024695275494621596 -4.299633389134123 -14.748941640667258 -3.8093660042430217 0.0026617380373883306 -0.021083029310020988 -0.04814171137118626 -0.0017930814159678073 -10.784179709465295 -0.008793494793273389 
-0.022879507977185132 -0.021098879415348045 0.024502805060204462 0.04819431402678484 -0.04414213460238835 -0.014881112025384922 5.264290488930459 3.0998714450629907 -2.2474230113979243 -0.9377260723729108 3.4073556417822286 0.4141450519497171 -0.7024876979191892 -0.8555639692919801 0.6602183406557882 -0.3736714651766641 -0.2534503437310516 -0.34930496140662803 0.1971266125010002 11.169120678327968 -1.6943777243878981 0.3889335431212122 -0.7423663542194268 -4.02198963511884 1.0963588873909074 -17.46314688623083 -0.36314218155739286 -11.390031212736615 3.8443356326012785 -17.065573868991574 82.00166357948339 -2.007161483490988 9.659852959196547 23.011653222813447 1.3207617781505114 81.79487328032624 9.622425749176598 -0.5065845539728693 -5.670592085817598 4.486052443203109 -0.11079936906077567 -1.5825041747459532 -0.0001244771835870589 0.039678595103853194 -56.215240079357734 -0.014791489971751686 -0.001017872943421071 -56.232904368007524 -38.789243048274514 0.009628853087568525 -0.026128613894278414 0.014386801418751718 -0.03746130923056447 0.015032902926136004 -0.0005255060174011383 0.01676356776815357 0.025603051033316743 -36.71688913988208 -0.005358709419260089 -0.03335320814454585 0.019985029456952286 -0.01700762572868604 0.004384146212864042 -0.01929610641088435 -0.012112980297432288 -0.03413522890622789 -19.751763435842463 -0.0016462992134866565 -0.003408895579750461 0.025704542491998626 -0.016519252718646665 0.013125732731841906 0.04823401710317683 -0.002370006761419908 -0.010352448470195615 24.024478155512167 0.0059108648023787165 0.014576594590099565 28.86744719029492 -0.03201254938622634 -0.007743552940648117 28.903746555981858 0.01059346716545198 0.036465288754699315 10.643104584949675 2.56197767596874 13.805928808986836 -79.79703851189471 16.247315552170313 -11.286196766578389 -76.7488944365848 11.131548459584872 -98.6928399324691 -8.731704545088409 -11.229962811522686 6.730104104017943 -0.50156662086445 0.10249216641880768 -8.140636322736585 -0.011655127655423935 0.0019020233950171163 44.60969100047191 0.014650092270646694 -0.0029013793305833584 44.563738566070484 12.426521341713098 -0.0037956980975299417 0.010731317964639253 -0.014476481059022432 -0.00987292119027001 0.018722088040212803 -0.03444776677813905 0.005300801764986193 -0.0032338019389075174 11.08912869749559 -0.018286264530002604 -0.006860977906217593 0.00914283364444648 -0.015210162199915188 -0.013629879441554443 -0.005463112679845824 0.010200030396767137 0.03715836733374522 4.816892198562818 0.037296409866165954 0.03918732737021237 -0.04622299205987745 0.0320219005403475 0.029896430101873178 -0.00148575578050325 -0.04778887524011512 -0.04158856952766794 -5.641220843721232 -0.019371099109649664 -0.049260217382617565 -6.680113748396117 -0.009178772081489922 -0.00047409876040452353 -6.720759380835313 0.046402815076888225 0.016017906713508223 0.029624486522569594 -0.005763623897108678 0.009064210531081283 8.040813310587707 3.5217939089095633 -19.19076622114284 -0.03487098757563834 10.346605637942321 0.04575904360454455 -5.648075493033777 -15.648517935252253 3.1849716608806644 -5.91604549195691e-05 -0.0270770887662998 0.03376311374408587 0.036714363098232804 4.725377867113079 -0.013995493934847007 12.46015931092237 -8.209875743541678 6.883274424581409 0.039102746638215474 46.382612913968266 0.024480565785057126 -4.3157058891952955 -14.71116242661055 -3.8591810244203977 0.01184470351009518 -0.025132113623356198 -0.018860653672305046 0.02991504821342146 -10.731423365504357 -0.018061620228030564 
